<svg width="28" height="28" viewBox="0 0 28 28" fill="none" xmlns="http://www.w3.org/2000/svg">
<rect width="28" height="28" rx="14" fill="#1ABC9C"/>
<path fill-rule="evenodd" clip-rule="evenodd" d="M18.9747 6.29955C19.762 6.29955 20.4003 6.925 20.4003 7.69653C20.4003 8.46806 19.762 9.09351 18.9747 9.09351C18.1874 9.09351 17.5491 8.46806 17.5491 7.69653C17.5491 6.925 18.1874 6.29955 18.9747 6.29955Z" fill="white"/>
<path fill-rule="evenodd" clip-rule="evenodd" d="M19.5668 12.1982C19.5279 12.2513 18.1748 12.4597 18.1748 12.4597C18.1748 12.4597 17.5393 13.6918 17.4624 13.6997C17.3855 13.7074 16.8126 12.4535 16.8126 12.4535C16.8126 12.4535 15.4455 12.3178 15.4342 12.1794C15.4231 12.0412 16.4247 11.1479 16.4247 11.1479C16.4247 11.1479 16.2268 9.80849 16.2853 9.73877C16.3438 9.66895 17.5471 10.3473 17.5471 10.3473C17.5471 10.3473 18.7797 9.70108 18.8394 9.75039C18.899 9.7997 18.6288 11.158 18.6288 11.158L19.5668 12.1982Z" fill="white"/>
<path fill-rule="evenodd" clip-rule="evenodd" d="M21.5181 11.8667C21.4886 11.8878 20.7376 11.7679 20.7376 11.7679C20.7376 11.7679 20.1936 12.3085 20.1516 12.2994C20.1096 12.2904 20.018 11.533 20.018 11.533C20.018 11.533 19.3174 11.2293 19.3348 11.1545C19.3522 11.0796 20.0327 10.7799 20.0327 10.7799C20.0327 10.7799 20.1538 10.0409 20.1965 10.0141C20.2392 9.98734 20.7615 10.549 20.7615 10.549C20.7615 10.549 21.5225 10.4181 21.5458 10.4542C21.5691 10.4903 21.1971 11.1594 21.1971 11.1594L21.5181 11.8667Z" fill="white"/>
<path fill-rule="evenodd" clip-rule="evenodd" d="M11.9458 6.16681C11.9483 6.22273 11.1342 7.09363 11.1342 7.09363C11.1342 7.09363 11.3811 8.2502 11.3325 8.297C11.284 8.34384 10.1943 7.82802 10.1943 7.82802C10.1943 7.82802 9.17924 8.47979 9.09487 8.39468C9.01035 8.30957 9.20312 7.17802 9.20312 7.17802C9.20312 7.17802 8.32343 6.40235 8.32495 6.32469C8.32662 6.24709 9.53 6.04179 9.53 6.04179C9.53 6.04179 10.0186 4.94754 10.0869 4.94772C10.1553 4.94779 10.7236 5.98954 10.7236 5.98954L11.9458 6.16681Z" fill="white"/>
<path fill-rule="evenodd" clip-rule="evenodd" d="M14.5458 12.3001C14.543 12.3863 13.1736 13.5946 13.1736 13.5946C13.1736 13.5946 13.4172 15.4053 13.3362 15.4696C13.2551 15.5339 11.6259 14.5742 11.6259 14.5742C11.6259 14.5742 9.97124 15.4156 9.85046 15.272C9.72964 15.1284 10.1656 13.424 10.1656 13.424C10.1656 13.424 8.89384 12.0991 8.9056 11.9804C8.9174 11.8616 10.8106 11.7337 10.8106 11.7337C10.8106 11.7337 11.7013 10.1328 11.8075 10.1434C11.9137 10.1543 12.6698 11.8391 12.6698 11.8391L14.5458 12.3001Z" fill="white"/>
<path fill-rule="evenodd" clip-rule="evenodd" d="M14.4649 17.4917C14.4577 17.5378 13.6451 18.1004 13.6451 18.1004C13.6451 18.1004 13.6557 19.0816 13.608 19.111C13.5604 19.1404 12.7523 18.5302 12.7523 18.5302C12.7523 18.5302 11.8113 18.8796 11.7562 18.7956C11.701 18.7119 12.0471 17.8282 12.0471 17.8282C12.0471 17.8282 11.4544 17.0446 11.4685 16.9816C11.4827 16.919 12.504 16.9646 12.504 16.9646C12.504 16.9646 13.0865 16.1638 13.1426 16.1759C13.1986 16.1881 13.4917 17.1327 13.4917 17.1327L14.4649 17.4917Z" fill="white"/>
<path fill-rule="evenodd" clip-rule="evenodd" d="M19.0452 16.003C19.0605 16.0211 19.0024 16.5219 19.0024 16.5219C19.0024 16.5219 19.3855 16.8454 19.3808 16.8735C19.376 16.9019 18.8654 17.0088 18.8654 17.0088C18.8654 17.0088 18.681 17.4874 18.6298 17.4806C18.5786 17.4738 18.3542 17.0456 18.3542 17.0456C18.3542 17.0456 17.8495 17.0117 17.8301 16.9854C17.8105 16.9587 18.1752 16.5812 18.1752 16.5812C18.1752 16.5812 18.063 16.0897 18.0869 16.0722C18.1105 16.0545 18.5757 16.2575 18.5757 16.2575L19.0452 16.003Z" fill="white"/>
<path fill-rule="evenodd" clip-rule="evenodd" d="M9.00212 15.0883C8.96211 15.1046 8.14101 14.742 8.14101 14.742C8.14101 14.742 7.3606 15.2169 7.31537 15.194C7.27003 15.171 7.38954 14.2539 7.38954 14.2539C7.38954 14.2539 6.68028 13.6904 6.72225 13.6076C6.76418 13.5249 7.62921 13.373 7.62921 13.373C7.62921 13.373 7.98585 12.5405 8.04259 12.5218C8.09912 12.5027 8.52883 13.3167 8.52883 13.3167C8.52883 13.3167 9.43561 13.3875 9.45155 13.4368C9.46741 13.4861 8.84514 14.1627 8.84514 14.1627L9.00212 15.0883Z" fill="white"/>
<path fill-rule="evenodd" clip-rule="evenodd" d="M15.9048 6.67505C15.8735 6.65039 15.8028 5.82821 15.8028 5.82821C15.8028 5.82821 15.0618 5.41725 15.0603 5.37063C15.0588 5.32408 15.8664 5.00502 15.8664 5.00502C15.8664 5.00502 16.0111 4.18164 16.098 4.17786C16.1847 4.17423 16.6981 4.7987 16.6981 4.7987C16.6981 4.7987 17.5427 4.70818 17.5836 4.74489C17.6246 4.78174 17.1486 5.49423 17.1486 5.49423C17.1486 5.49423 17.4977 6.25334 17.4643 6.28834C17.4309 6.32327 16.5952 6.13057 16.5952 6.13057L15.9048 6.67505Z" fill="white"/>
<path fill-rule="evenodd" clip-rule="evenodd" d="M14.0968 6.23374C15.339 6.23374 16.346 7.21417 16.346 8.42364C16.346 9.63307 15.339 10.6135 14.0968 10.6135C12.8546 10.6135 11.8477 9.63307 11.8477 8.42364C11.8477 7.21417 12.8546 6.23374 14.0968 6.23374Z" fill="white"/>
<path fill-rule="evenodd" clip-rule="evenodd" d="M8.06135 8.70986C8.94954 8.70986 9.66957 9.41157 9.66957 10.2772C9.66957 11.1428 8.94954 11.8445 8.06135 11.8445C7.17316 11.8445 6.45312 11.1428 6.45312 10.2772C6.45312 9.41157 7.17316 8.70986 8.06135 8.70986Z" fill="white"/>
<path fill-rule="evenodd" clip-rule="evenodd" d="M15.6981 13.1556C16.6936 13.1556 17.5005 13.9454 17.5005 14.9197C17.5005 15.894 16.6936 16.6838 15.6981 16.6838C14.7027 16.6838 13.8958 15.894 13.8958 14.9197C13.8958 13.9454 14.7027 13.1556 15.6981 13.1556Z" fill="white"/>
<path fill-rule="evenodd" clip-rule="evenodd" d="M16.346 17.1939C16.7581 17.1939 17.0921 17.5166 17.0921 17.9147C17.0921 18.3128 16.7581 18.6355 16.346 18.6355C15.9339 18.6355 15.5999 18.3128 15.5999 17.9147C15.5999 17.5166 15.9339 17.1939 16.346 17.1939Z" fill="white"/>
<path fill-rule="evenodd" clip-rule="evenodd" d="M19.6422 13.2539C20.2206 13.1054 20.8125 13.4438 20.9642 14.0099C21.1159 14.576 20.7699 15.1553 20.1915 15.3037C19.613 15.4522 19.0212 15.1137 18.8694 14.5475C18.7177 13.9815 19.0636 13.4023 19.6422 13.2539Z" fill="white"/>
<path fill-rule="evenodd" clip-rule="evenodd" d="M9.8732 15.788C10.4099 15.788 10.845 16.215 10.845 16.7418C10.845 17.2685 10.4099 17.6956 9.8732 17.6956C9.3365 17.6956 8.90137 17.2685 8.90137 16.7418C8.90137 16.215 9.3365 15.788 9.8732 15.788Z" fill="white"/>
<path fill-rule="evenodd" clip-rule="evenodd" d="M12.9504 3.85541C13.453 3.85541 13.8604 4.24655 13.8604 4.72911C13.8604 5.21165 13.453 5.60278 12.9504 5.60278C12.4479 5.60278 12.0405 5.21165 12.0405 4.72911C12.0405 4.24655 12.4479 3.85541 12.9504 3.85541Z" fill="white"/>
<path fill-rule="evenodd" clip-rule="evenodd" d="M9.40386 18.2465C8.89239 18.2419 8.47646 17.8594 8.44444 17.3765C8.4211 17.3989 8.39376 17.4256 8.35942 17.4608C8.35938 17.4606 8.35884 17.4592 8.35884 17.4592C8.35884 17.4592 8.20695 17.6053 7.99316 17.8816C7.50227 18.505 6.81553 19.6327 6.65467 21.2039C6.60954 21.6282 6.60566 22.0845 6.65492 22.5683C6.67122 22.7358 6.69162 22.9058 6.72092 23.0807C6.72114 23.0817 6.72135 23.0826 6.72157 23.0837C6.72422 23.0952 6.72854 23.106 6.73232 23.117C6.74949 23.211 6.76757 23.3054 6.78906 23.4013C7.01817 24.2006 7.43732 24.1296 7.62182 24.1436C7.85161 24.1611 8.32635 23.9413 8.17061 23.5066C7.2871 20.2806 9.25647 18.4118 9.40386 18.2465Z" fill="white"/>
</svg>
