<svg width="28" height="28" viewBox="0 0 28 28" fill="none" xmlns="http://www.w3.org/2000/svg">
<circle cx="14" cy="14" r="14" fill="#2359F5"/>
<path fill-rule="evenodd" clip-rule="evenodd" d="M9.71595 10.9281C9.52904 10.8384 9.30474 10.9132 9.21502 11.0927C9.1253 11.2797 9.20007 11.5041 9.37951 11.5939L13.6188 13.7183V19.7027C13.6188 19.9121 13.7832 20.0767 13.9926 20.0767C14.2019 20.0767 14.3664 19.9121 14.3664 19.7027V13.7183L18.6131 11.5266C18.8001 11.4293 18.8674 11.2049 18.7702 11.0254C18.673 10.8384 18.4487 10.7711 18.2692 10.8683L13.9926 13.075L9.71595 10.9281Z" fill="white"/>
<path fill-rule="evenodd" clip-rule="evenodd" d="M21.2449 9.27518L18.4187 7.64445C18.785 6.4401 19.7346 6.12592 20.2953 6.04364C20.5495 6.00623 20.7439 5.7893 20.7439 5.53497V5.51253C20.7439 5.20583 20.4748 4.96646 20.1682 5.00386C18.6206 5.20583 17.8729 6.19324 17.5065 7.11334L14.7477 5.51253C14.2841 5.24323 13.7159 5.24323 13.2523 5.51253L10.471 7.12082C10.1047 6.20072 9.34953 5.19835 7.80187 5.00386C7.49533 4.96646 7.22617 5.20583 7.22617 5.51253V5.53497C7.22617 5.7893 7.42056 6.00623 7.67477 6.04364C8.24299 6.11844 9.19252 6.4401 9.5514 7.65193L6.74766 9.27518C6.28411 9.54447 6 10.0382 6 10.5693V18.0946C6 18.6257 6.28411 19.1194 6.74766 19.3887L13.2523 23.1513C13.7159 23.4206 14.2841 23.4206 14.7477 23.1513L21.2523 19.3887C21.7159 19.1194 22 18.6257 22 18.0946V10.5693C21.9925 10.0382 21.7084 9.54447 21.2449 9.27518ZM20.3626 18.0123L14 21.7001L7.62991 18.0123V10.6516L14 6.96373L20.3701 10.6441V18.0123H20.3626Z" fill="white"/>
</svg>
